<svg id="Layer_1" data-name="Layer 1" xmlns="http://www.w3.org/2000/svg" viewBox="0 0 250 250"><defs><style>.cls-1{fill:#7f47dd;}.cls-2{fill:#fff;}</style></defs><title>e</title><circle class="cls-1" cx="124.66" cy="125.5" r="125"/><path class="cls-2" d="M97.19,87.71a2.91,2.91,0,0,1-2.86,2.86H77.93v3.84a6.39,6.39,0,0,0,6.39,6.39h.75A6.3,6.3,0,0,0,90.94,97a2.64,2.64,0,0,1,2.48-1.81,2.94,2.94,0,0,1,2.93,2.93,2.47,2.47,0,0,1-.3,1.28,11.65,11.65,0,0,1-11,7.07h-.75a12,12,0,0,1-12.11-12V81.47A12.1,12.1,0,0,1,84.32,69.36h.75A12,12,0,0,1,97.19,81.54Zm-5.72-6.17a6.44,6.44,0,0,0-6.32-6.47H84.4a6.4,6.4,0,0,0-6.47,6.39v3.76H91.47Z"/><path class="cls-2" d="M129.61,52.51,99,154.88a2.8,2.8,0,0,1-5.42-1v-.6a1.76,1.76,0,0,1,.15-.6L124.27,50.41a2.67,2.67,0,0,1,2.56-1.88,2.83,2.83,0,0,1,3,2.78A3.4,3.4,0,0,1,129.61,52.51Z"/><path class="cls-2" d="M151.44,52.51,120.85,154.88a2.8,2.8,0,0,1-5.42-1v-.6a1.76,1.76,0,0,1,.15-.6L146.1,50.41a2.67,2.67,0,0,1,2.56-1.88,2.83,2.83,0,0,1,3,2.78A3.4,3.4,0,0,1,151.44,52.51Z"/><path class="cls-2" d="M177.1,87.71a2.91,2.91,0,0,1-2.86,2.86h-16.4v3.84a6.39,6.39,0,0,0,6.39,6.39H165A6.3,6.3,0,0,0,170.86,97a2.64,2.64,0,0,1,2.48-1.81,2.94,2.94,0,0,1,2.93,2.93,2.47,2.47,0,0,1-.3,1.28,11.65,11.65,0,0,1-11,7.07h-.75a12,12,0,0,1-12.11-12V81.47a12.1,12.1,0,0,1,12.11-12.11H165A12,12,0,0,1,177.1,81.54Zm-5.72-6.17a6.44,6.44,0,0,0-6.32-6.47h-.75a6.4,6.4,0,0,0-6.47,6.39v3.76h13.54Z"/><path class="cls-2" d="M124.66,209.17c-13.5,0-24.59-9-25.85-20.48a2.65,2.65,0,0,0-2.76-2.19h0a2.59,2.59,0,0,0-2.78,2.64c1.52,14,15,24.89,31.39,24.89s29.86-10.92,31.39-24.89a2.59,2.59,0,0,0-2.78-2.64h0a2.65,2.65,0,0,0-2.76,2.19C149.24,200.18,138.15,209.17,124.66,209.17Z"/></svg>